# xmcd
#
# Track frame offsets:
#	150
#	16485
#	32524
#	48338
#	64951
#	79639
#	98193
#	112240
#	129766
#	142058
#	161423
#
# Disc length: 2341 seconds
#
# Revision: 1
# Processed by: cddbd v1.5.1PL2 Copyright (c) Steve Scherf et al.
# Submitted via: audiograbber 1.83.01
#
DISCID=8e09230b
DTITLE=Joy Lynn White - One More Time
DYEAR=2005
DGENRE=Country
TTITLE0=Keep This Love
TTITLE1=I'm Free
TTITLE2=Certain Boy
TTITLE3=Girls With Apartments In Nashville
TTITLE4=Lookin' For You (Lookin' For Me)
TTITLE5=Love Sometimes
TTITLE6=If You Want My Heart
TTITLE7=Victim Of Love
TTITLE8=Good Rockin' Mama
TTITLE9=Just Some Girl
TTITLE10=One More Time
EXTD=
EXTT0=
EXTT1=
EXTT2=
EXTT3=
EXTT4=
EXTT5=
EXTT6=
EXTT7=
EXTT8=
EXTT9=
EXTT10=
PLAYORDER=
